STARTFONT 2.3
FONT -FontForge-Fontdiner Swanky-Book-R-Normal--8-80-72-72-P-50-ISO10646-1
SIZE 8 72 72  2
FONTBOUNDINGBOX 12 13 -2 -4
COMMENT "Generated by fontforge, http://fontforge.sourceforge.net"
COMMENT "Copyright (c) 2010 by Font Diner, Inc. All rights reserved."
STARTPROPERTIES 40
FOUNDRY "FontForge"
FAMILY_NAME "Fontdiner Swanky"
WEIGHT_NAME "Book"
SLANT "R"
SETWIDTH_NAME "Normal"
ADD_STYLE_NAME ""
PIXEL_SIZE 8
POINT_SIZE 80
RESOLUTION_X 72
RESOLUTION_Y 72
SPACING "P"
AVERAGE_WIDTH 50
CHARSET_REGISTRY "ISO10646"
CHARSET_ENCODING "1"
FONTNAME_REGISTRY ""
CHARSET_COLLECTIONS "ISO10646-1"
BITS_PER_PIXEL 2
FONT_NAME "FontdinerSwanky-Regular"
FACE_NAME "Fontdiner Swanky Regular"
COPYRIGHT "Copyright (c) 2010 by Font Diner, Inc. All rights reserved."
FONT_VERSION "1.001"
FONT_ASCENT 6
FONT_DESCENT 2
UNDERLINE_POSITION -1
UNDERLINE_THICKNESS 1
X_HEIGHT 4
CAP_HEIGHT 4
RAW_ASCENT 799
RAW_DESCENT 200
NORM_SPACE 3
RELATIVE_WEIGHT 40
RELATIVE_SETWIDTH 50
SUPERSCRIPT_X 0
SUPERSCRIPT_Y 3
SUPERSCRIPT_SIZE 5
SUBSCRIPT_X 0
SUBSCRIPT_Y 1
SUBSCRIPT_SIZE 5
AVG_LOWERCASE_WIDTH 51
AVG_UPPERCASE_WIDTH 61
ENDPROPERTIES
CHARS 231
STARTCHAR space
ENCODING 32
SWIDTH 320 0
DWIDTH 3 0
BBX 1 1 0 0
BITMAP
00
ENDCHAR
STARTCHAR exclam
ENCODING 33
SWIDTH 305 0
DWIDTH 2 0
BBX 3 7 0 0
BITMAP
64
74
70
70
60
50
A0
ENDCHAR
STARTCHAR quotedbl
ENCODING 34
SWIDTH 369 0
DWIDTH 3 0
BBX 3 3 0 3
BITMAP
54
E8
98
ENDCHAR
STARTCHAR numbersign
ENCODING 35
SWIDTH 702 0
DWIDTH 6 0
BBX 6 6 0 0
BITMAP
1440
6A80
7A90
6640
BB90
2200
ENDCHAR
STARTCHAR dollar
ENCODING 36
SWIDTH 545 0
DWIDTH 4 0
BBX 5 7 0 -1
BITMAP
1400
6900
D200
7D00
8740
AA00
1800
ENDCHAR
STARTCHAR percent
ENCODING 37
SWIDTH 657 0
DWIDTH 5 0
BBX 6 7 0 -1
BITMAP
A640
AB00
1A00
0C00
1A90
2690
1000
ENDCHAR
STARTCHAR ampersand
ENCODING 38
SWIDTH 668 0
DWIDTH 5 0
BBX 6 7 0 -1
BITMAP
2900
6600
2D00
6D80
A790
7AD0
0100
ENDCHAR
STARTCHAR quotesingle
ENCODING 39
SWIDTH 177 0
DWIDTH 1 0
BBX 2 3 0 3
BITMAP
40
D0
80
ENDCHAR
STARTCHAR parenleft
ENCODING 40
SWIDTH 384 0
DWIDTH 3 0
BBX 3 8 0 -1
BITMAP
04
24
60
A0
A0
60
30
18
ENDCHAR
STARTCHAR parenright
ENCODING 41
SWIDTH 375 0
DWIDTH 3 0
BBX 3 8 0 -1
BITMAP
40
20
24
28
28
28
30
50
ENDCHAR
STARTCHAR asterisk
ENCODING 42
SWIDTH 640 0
DWIDTH 5 0
BBX 5 5 0 0
BITMAP
3600
6E00
FFC0
2A00
2200
ENDCHAR
STARTCHAR plus
ENCODING 43
SWIDTH 607 0
DWIDTH 5 0
BBX 5 5 0 0
BITMAP
1C00
5D40
BE80
0C00
0800
ENDCHAR
STARTCHAR comma
ENCODING 44
SWIDTH 226 0
DWIDTH 2 0
BBX 2 3 0 -2
BITMAP
50
A0
40
ENDCHAR
STARTCHAR hyphen
ENCODING 45
SWIDTH 549 0
DWIDTH 4 0
BBX 4 2 0 2
BITMAP
55
7E
ENDCHAR
STARTCHAR period
ENCODING 46
SWIDTH 226 0
DWIDTH 2 0
BBX 2 2 0 -1
BITMAP
50
90
ENDCHAR
STARTCHAR slash
ENCODING 47
SWIDTH 600 0
DWIDTH 5 0
BBX 5 8 0 -1
BITMAP
0180
0380
0B00
1D00
2800
7000
D000
4000
ENDCHAR
STARTCHAR zero
ENCODING 48
SWIDTH 740 0
DWIDTH 6 0
BBX 6 5 0 0
BITMAP
2E80
A0E0
A0A0
A0D0
2A80
ENDCHAR
STARTCHAR one
ENCODING 49
SWIDTH 503 0
DWIDTH 4 0
BBX 4 7 0 -1
BITMAP
68
2C
1C
1C
18
2D
55
ENDCHAR
STARTCHAR two
ENCODING 50
SWIDTH 638 0
DWIDTH 5 0
BBX 5 7 0 -1
BITMAP
5A00
A280
4280
0A40
7480
FB80
0500
ENDCHAR
STARTCHAR three
ENCODING 51
SWIDTH 620 0
DWIDTH 5 0
BBX 5 7 0 -1
BITMAP
5900
A740
4280
1B40
4280
AB40
0400
ENDCHAR
STARTCHAR four
ENCODING 52
SWIDTH 606 0
DWIDTH 5 0
BBX 5 7 0 -1
BITMAP
0200
0A00
2E00
6A40
AB80
0A40
1A00
ENDCHAR
STARTCHAR five
ENCODING 53
SWIDTH 610 0
DWIDTH 5 0
BBX 5 7 0 -1
BITMAP
5A40
E540
A900
5740
4380
BF00
0400
ENDCHAR
STARTCHAR six
ENCODING 54
SWIDTH 619 0
DWIDTH 5 0
BBX 5 7 0 -1
BITMAP
1940
7A40
BA40
E280
D1C0
A680
1900
ENDCHAR
STARTCHAR seven
ENCODING 55
SWIDTH 598 0
DWIDTH 5 0
BBX 5 7 0 -1
BITMAP
AA80
9780
4340
0700
0A00
1D00
1540
ENDCHAR
STARTCHAR eight
ENCODING 56
SWIDTH 642 0
DWIDTH 5 0
BBX 5 7 0 -1
BITMAP
1900
7280
A280
7B80
E1C0
A2C0
2A00
ENDCHAR
STARTCHAR nine
ENCODING 57
SWIDTH 610 0
DWIDTH 5 0
BBX 5 7 0 -1
BITMAP
2900
A240
D280
B780
5780
7B00
5400
ENDCHAR
STARTCHAR colon
ENCODING 58
SWIDTH 223 0
DWIDTH 2 0
BBX 2 4 0 -1
BITMAP
90
90
90
90
ENDCHAR
STARTCHAR semicolon
ENCODING 59
SWIDTH 228 0
DWIDTH 2 0
BBX 2 5 0 -2
BITMAP
90
50
50
A0
40
ENDCHAR
STARTCHAR less
ENCODING 60
SWIDTH 563 0
DWIDTH 5 0
BBX 5 5 0 0
BITMAP
0680
2E40
B400
1900
0240
ENDCHAR
STARTCHAR equal
ENCODING 61
SWIDTH 531 0
DWIDTH 4 0
BBX 5 4 0 0
BITMAP
AA00
AA00
FF40
1500
ENDCHAR
STARTCHAR greater
ENCODING 62
SWIDTH 576 0
DWIDTH 5 0
BBX 5 5 0 0
BITMAP
A000
7D00
0B40
1800
5000
ENDCHAR
STARTCHAR question
ENCODING 63
SWIDTH 592 0
DWIDTH 5 0
BBX 5 7 0 0
BITMAP
5400
9740
0280
1740
3900
2000
A000
ENDCHAR
STARTCHAR at
ENCODING 64
SWIDTH 792 0
DWIDTH 6 0
BBX 7 7 0 -1
BITMAP
0500
29A0
99A4
CA98
9DA4
65A0
0500
ENDCHAR
STARTCHAR A
ENCODING 65
SWIDTH 788 0
DWIDTH 6 0
BBX 9 8 -1 -2
BITMAP
050000
02C000
02D000
05B000
0AB400
282C00
581E40
001400
ENDCHAR
STARTCHAR B
ENCODING 66
SWIDTH 774 0
DWIDTH 6 0
BBX 7 7 -1 -1
BITMAP
5540
2EB8
0D1C
0EB4
0D68
0D78
2A90
ENDCHAR
STARTCHAR C
ENCODING 67
SWIDTH 766 0
DWIDTH 6 0
BBX 6 7 0 -1
BITMAP
0550
39A0
B010
A000
B010
39A0
0540
ENDCHAR
STARTCHAR D
ENCODING 68
SWIDTH 833 0
DWIDTH 7 0
BBX 7 7 0 -1
BITMAP
5540
6DA0
2C38
2828
1834
2EA0
5000
ENDCHAR
STARTCHAR E
ENCODING 69
SWIDTH 781 0
DWIDTH 6 0
BBX 6 7 0 -1
BITMAP
5AA0
3820
2950
2F00
2910
6AA0
5400
ENDCHAR
STARTCHAR F
ENCODING 70
SWIDTH 731 0
DWIDTH 6 0
BBX 6 7 0 -1
BITMAP
5A90
3860
2910
2F00
2A00
2800
5500
ENDCHAR
STARTCHAR G
ENCODING 71
SWIDTH 828 0
DWIDTH 7 0
BBX 7 7 0 -1
BITMAP
0560
39A0
B010
A1A4
B070
29A0
0500
ENDCHAR
STARTCHAR H
ENCODING 72
SWIDTH 797 0
DWIDTH 6 0
BBX 7 7 0 -1
BITMAP
01A4
B8A0
74A0
7AE0
3490
31E4
6400
ENDCHAR
STARTCHAR I
ENCODING 73
SWIDTH 445 0
DWIDTH 4 0
BBX 4 7 0 -1
BITMAP
55
38
28
28
28
24
69
ENDCHAR
STARTCHAR J
ENCODING 74
SWIDTH 718 0
DWIDTH 6 0
BBX 7 7 -1 -1
BITMAP
0164
01A0
0070
0070
5470
1870
0A90
ENDCHAR
STARTCHAR K
ENCODING 75
SWIDTH 934 0
DWIDTH 7 0
BBX 9 7 0 -1
BITMAP
695500
386400
2A8000
29C000
28A000
792800
006A40
ENDCHAR
STARTCHAR L
ENCODING 76
SWIDTH 712 0
DWIDTH 6 0
BBX 6 7 0 0
BITMAP
5500
7C00
2800
2800
2810
2860
6A90
ENDCHAR
STARTCHAR M
ENCODING 77
SWIDTH 1033 0
DWIDTH 8 0
BBX 9 7 0 -1
BITMAP
681A40
2D2D00
2E6D00
27DC00
269C00
292D00
550000
ENDCHAR
STARTCHAR N
ENCODING 78
SWIDTH 840 0
DWIDTH 7 0
BBX 7 6 0 0
BITMAP
A9A8
2D20
2B60
22E0
20A0
B960
ENDCHAR
STARTCHAR O
ENCODING 79
SWIDTH 808 0
DWIDTH 6 0
BBX 7 5 0 0
BITMAP
2A90
B0B0
A074
B070
2E90
ENDCHAR
STARTCHAR P
ENCODING 80
SWIDTH 746 0
DWIDTH 6 0
BBX 6 6 0 -1
BITMAP
7A90
3470
3E80
2800
7900
5500
ENDCHAR
STARTCHAR Q
ENCODING 81
SWIDTH 789 0
DWIDTH 6 0
BBX 6 8 0 -3
BITMAP
2AD0
B0B0
A070
70A0
1B80
0290
0290
0400
ENDCHAR
STARTCHAR R
ENCODING 82
SWIDTH 826 0
DWIDTH 7 0
BBX 8 7 0 -2
BITMAP
7AA0
2870
2EC0
28D0
7D70
543E
0050
ENDCHAR
STARTCHAR S
ENCODING 83
SWIDTH 661 0
DWIDTH 5 0
BBX 5 7 0 -1
BITMAP
0400
A6C0
E440
6F80
42C0
6680
4400
ENDCHAR
STARTCHAR T
ENCODING 84
SWIDTH 754 0
DWIDTH 6 0
BBX 6 6 0 0
BITMAP
5550
9E60
4A10
0A00
0A00
1E40
ENDCHAR
STARTCHAR U
ENCODING 85
SWIDTH 725 0
DWIDTH 6 0
BBX 6 6 0 0
BITMAP
0050
B4A0
7050
7050
7490
2E80
ENDCHAR
STARTCHAR V
ENCODING 86
SWIDTH 786 0
DWIDTH 6 0
BBX 8 7 -1 -1
BITMAP
0510
6D1D
0E14
0720
03D0
0180
0040
ENDCHAR
STARTCHAR W
ENCODING 87
SWIDTH 1026 0
DWIDTH 8 0
BBX 10 6 -1 -1
BITMAP
6D1190
0D7140
0ABA00
07DE00
024D00
010400
ENDCHAR
STARTCHAR X
ENCODING 88
SWIDTH 860 0
DWIDTH 7 0
BBX 7 6 0 -1
BITMAP
6964
1D90
0B40
1AC0
B4E4
0154
ENDCHAR
STARTCHAR Y
ENCODING 89
SWIDTH 848 0
DWIDTH 7 0
BBX 8 7 -1 -1
BITMAP
0100
6E19
0754
01D0
00C0
00D0
01A4
ENDCHAR
STARTCHAR Z
ENCODING 90
SWIDTH 685 0
DWIDTH 5 0
BBX 6 5 0 0
BITMAP
AAD0
8380
0E00
2C50
7A90
ENDCHAR
STARTCHAR bracketleft
ENCODING 91
SWIDTH 380 0
DWIDTH 3 0
BBX 3 8 0 -1
BITMAP
64
70
60
60
60
60
60
74
ENDCHAR
STARTCHAR backslash
ENCODING 92
SWIDTH 680 0
DWIDTH 5 0
BBX 5 8 0 -1
BITMAP
A000
7400
2800
1D00
0B00
0340
01C0
0040
ENDCHAR
STARTCHAR bracketright
ENCODING 93
SWIDTH 371 0
DWIDTH 3 0
BBX 3 8 0 -1
BITMAP
64
28
28
28
28
28
24
74
ENDCHAR
STARTCHAR asciicircum
ENCODING 94
SWIDTH 671 0
DWIDTH 5 0
BBX 5 5 0 2
BITMAP
0800
1E00
3A40
B080
9040
ENDCHAR
STARTCHAR underscore
ENCODING 95
SWIDTH 840 0
DWIDTH 7 0
BBX 7 2 0 -1
BITMAP
AAA4
AAF8
ENDCHAR
STARTCHAR grave
ENCODING 96
SWIDTH 707 0
DWIDTH 6 0
BBX 2 3 2 4
BITMAP
50
60
10
ENDCHAR
STARTCHAR a
ENCODING 97
SWIDTH 572 0
DWIDTH 5 0
BBX 5 5 0 0
BITMAP
1400
6700
6740
A700
6B40
ENDCHAR
STARTCHAR b
ENCODING 98
SWIDTH 723 0
DWIDTH 6 0
BBX 7 8 -1 -2
BITMAP
6D00
0D00
0D00
0D50
0D78
0C28
1EA0
1000
ENDCHAR
STARTCHAR c
ENCODING 99
SWIDTH 589 0
DWIDTH 5 0
BBX 5 5 0 -1
BITMAP
2A00
A240
A000
7640
1500
ENDCHAR
STARTCHAR d
ENCODING 100
SWIDTH 713 0
DWIDTH 6 0
BBX 6 9 0 -2
BITMAP
0100
01E0
00D0
00D0
3AD0
A0C0
60C0
1AD0
0040
ENDCHAR
STARTCHAR e
ENCODING 101
SWIDTH 593 0
DWIDTH 5 0
BBX 5 5 0 -1
BITMAP
1900
6240
BA80
7500
1500
ENDCHAR
STARTCHAR f
ENCODING 102
SWIDTH 507 0
DWIDTH 4 0
BBX 6 11 -1 -3
BITMAP
0280
0990
0D40
0D00
2F80
0A00
0600
0700
0700
6700
2900
ENDCHAR
STARTCHAR g
ENCODING 103
SWIDTH 606 0
DWIDTH 5 0
BBX 5 9 0 -4
BITMAP
02C0
2B40
9280
9280
7A00
7A00
A2C0
D1C0
6A40
ENDCHAR
STARTCHAR h
ENCODING 104
SWIDTH 678 0
DWIDTH 5 0
BBX 7 8 -1 -1
BITMAP
6900
1D00
0D00
0D40
0EA0
0C30
1D30
0064
ENDCHAR
STARTCHAR i
ENCODING 105
SWIDTH 393 0
DWIDTH 3 0
BBX 3 7 0 0
BITMAP
10
38
14
78
24
24
78
ENDCHAR
STARTCHAR j
ENCODING 106
SWIDTH 385 0
DWIDTH 3 0
BBX 4 9 -1 -3
BITMAP
18
18
19
09
0A
0A
06
66
28
ENDCHAR
STARTCHAR k
ENCODING 107
SWIDTH 749 0
DWIDTH 6 0
BBX 6 8 0 -1
BITMAP
5000
7400
35D0
3600
3B00
3580
7890
0190
ENDCHAR
STARTCHAR l
ENCODING 108
SWIDTH 369 0
DWIDTH 3 0
BBX 4 8 -1 -1
BITMAP
6D
0D
0D
0D
0D
0C
0D
19
ENDCHAR
STARTCHAR m
ENCODING 109
SWIDTH 990 0
DWIDTH 8 0
BBX 8 5 0 0
BITMAP
1100
BAED
31C9
748A
0150
ENDCHAR
STARTCHAR n
ENCODING 110
SWIDTH 643 0
DWIDTH 5 0
BBX 5 5 0 0
BITMAP
1100
BA80
31C0
7480
0140
ENDCHAR
STARTCHAR o
ENCODING 111
SWIDTH 705 0
DWIDTH 6 0
BBX 6 4 0 0
BITMAP
2A40
A0D0
9090
6A80
ENDCHAR
STARTCHAR p
ENCODING 112
SWIDTH 723 0
DWIDTH 6 0
BBX 6 7 0 -2
BITMAP
5000
7A80
34A0
34A0
3A80
3400
7900
ENDCHAR
STARTCHAR q
ENCODING 113
SWIDTH 682 0
DWIDTH 5 0
BBX 6 7 0 -2
BITMAP
0190
6AC0
D180
A280
2A80
0180
0690
ENDCHAR
STARTCHAR r
ENCODING 114
SWIDTH 595 0
DWIDTH 5 0
BBX 5 5 0 0
BITMAP
6A40
7A80
2800
2400
7900
ENDCHAR
STARTCHAR s
ENCODING 115
SWIDTH 533 0
DWIDTH 4 0
BBX 5 5 0 0
BITMAP
2900
9200
7900
5740
AA00
ENDCHAR
STARTCHAR t
ENCODING 116
SWIDTH 422 0
DWIDTH 3 0
BBX 4 7 0 0
BITMAP
24
74
B9
70
60
61
78
ENDCHAR
STARTCHAR u
ENCODING 117
SWIDTH 614 0
DWIDTH 5 0
BBX 5 5 0 -1
BITMAP
A680
6180
6240
3B80
0140
ENDCHAR
STARTCHAR v
ENCODING 118
SWIDTH 639 0
DWIDTH 5 0
BBX 7 6 -1 -1
BITMAP
0500
6CA4
0D50
0A80
0340
0100
ENDCHAR
STARTCHAR w
ENCODING 119
SWIDTH 805 0
DWIDTH 6 0
BBX 8 5 -1 0
BITMAP
5505
2C89
0EE8
0B70
0220
ENDCHAR
STARTCHAR x
ENCODING 120
SWIDTH 717 0
DWIDTH 6 0
BBX 6 6 0 -1
BITMAP
1400
7990
1E00
1B00
6690
0100
ENDCHAR
STARTCHAR y
ENCODING 121
SWIDTH 655 0
DWIDTH 5 0
BBX 5 8 0 -4
BITMAP
A680
B1C0
A1C0
6AC0
0180
5280
A740
1900
ENDCHAR
STARTCHAR z
ENCODING 122
SWIDTH 549 0
DWIDTH 4 0
BBX 5 4 0 0
BITMAP
AB40
4D00
2940
BA40
ENDCHAR
STARTCHAR braceleft
ENCODING 123
SWIDTH 708 0
DWIDTH 6 0
BBX 4 8 1 -1
BITMAP
29
34
34
34
B4
34
34
29
ENDCHAR
STARTCHAR bar
ENCODING 124
SWIDTH 304 0
DWIDTH 2 0
BBX 2 8 0 -1
BITMAP
60
70
70
70
60
60
60
50
ENDCHAR
STARTCHAR braceright
ENCODING 125
SWIDTH 517 0
DWIDTH 4 0
BBX 4 8 0 -1
BITMAP
68
1C
1C
1C
1E
1C
0C
68
ENDCHAR
STARTCHAR asciitilde
ENCODING 126
SWIDTH 466 0
DWIDTH 4 0
BBX 4 2 0 1
BITMAP
FE
04
ENDCHAR
STARTCHAR uni00A0
ENCODING 160
SWIDTH 320 0
DWIDTH 3 0
BBX 1 1 0 0
BITMAP
00
ENDCHAR
STARTCHAR exclamdown
ENCODING 161
SWIDTH 305 0
DWIDTH 2 0
BBX 3 8 0 -3
BITMAP
10
24
20
70
70
A0
A0
50
ENDCHAR
STARTCHAR cent
ENCODING 162
SWIDTH 417 0
DWIDTH 3 0
BBX 4 7 0 -1
BITMAP
24
28
99
C0
95
24
24
ENDCHAR
STARTCHAR sterling
ENCODING 163
SWIDTH 658 0
DWIDTH 5 0
BBX 6 7 0 -1
BITMAP
0400
2AC0
7580
A900
BE10
3A90
1540
ENDCHAR
STARTCHAR currency
ENCODING 164
SWIDTH 358 0
DWIDTH 3 0
BBX 3 3 0 1
BITMAP
A8
A8
44
ENDCHAR
STARTCHAR yen
ENCODING 165
SWIDTH 796 0
DWIDTH 6 0
BBX 7 6 -1 0
BITMAP
0400
6C24
0650
0790
06D0
0690
ENDCHAR
STARTCHAR brokenbar
ENCODING 166
SWIDTH 304 0
DWIDTH 2 0
BBX 2 8 0 -1
BITMAP
60
70
70
00
50
60
60
50
ENDCHAR
STARTCHAR section
ENCODING 167
SWIDTH 646 0
DWIDTH 5 0
BBX 5 9 0 -2
BITMAP
2A40
A140
7900
6B40
A280
7F40
1B80
9180
5A40
ENDCHAR
STARTCHAR dieresis
ENCODING 168
SWIDTH 708 0
DWIDTH 6 0
BBX 2 2 2 6
BITMAP
50
50
ENDCHAR
STARTCHAR copyright
ENCODING 169
SWIDTH 700 0
DWIDTH 6 0
BBX 6 6 0 0
BITMAP
0500
6A80
9550
9460
A980
1A00
ENDCHAR
STARTCHAR ordfeminine
ENCODING 170
SWIDTH 399 0
DWIDTH 3 0
BBX 3 4 0 3
BITMAP
10
98
A8
A8
ENDCHAR
STARTCHAR guillemotleft
ENCODING 171
SWIDTH 424 0
DWIDTH 3 0
BBX 4 4 0 0
BITMAP
15
A8
A8
25
ENDCHAR
STARTCHAR logicalnot
ENCODING 172
SWIDTH 541 0
DWIDTH 4 0
BBX 5 4 0 0
BITMAP
9540
AB00
0200
0140
ENDCHAR
STARTCHAR sfthyphen
ENCODING 173
SWIDTH 530 0
DWIDTH 4 0
BBX 4 2 0 2
BITMAP
55
FE
ENDCHAR
STARTCHAR registered
ENCODING 174
SWIDTH 700 0
DWIDTH 6 0
BBX 6 6 0 0
BITMAP
0500
6580
9E90
8860
9590
1A00
ENDCHAR
STARTCHAR macron
ENCODING 175
SWIDTH 705 0
DWIDTH 6 0
BBX 3 2 2 5
BITMAP
B4
50
ENDCHAR
STARTCHAR degree
ENCODING 176
SWIDTH 364 0
DWIDTH 3 0
BBX 3 3 0 3
BITMAP
60
A4
10
ENDCHAR
STARTCHAR plusminus
ENCODING 177
SWIDTH 607 0
DWIDTH 5 0
BBX 5 5 0 0
BITMAP
1C00
BF80
5D00
5900
BF40
ENDCHAR
STARTCHAR twosuperior
ENCODING 178
SWIDTH 440 0
DWIDTH 4 0
BBX 4 4 0 3
BITMAP
A8
49
65
FD
ENDCHAR
STARTCHAR threesuperior
ENCODING 179
SWIDTH 442 0
DWIDTH 4 0
BBX 4 5 0 2
BITMAP
68
49
1D
AD
10
ENDCHAR
STARTCHAR acute
ENCODING 180
SWIDTH 694 0
DWIDTH 6 0
BBX 2 2 2 6
BITMAP
50
90
ENDCHAR
STARTCHAR mu
ENCODING 181
SWIDTH 1000 0
DWIDTH 8 0
BBX 6 6 0 -2
BITMAP
7590
2490
2490
2ED0
2440
2400
ENDCHAR
STARTCHAR paragraph
ENCODING 182
SWIDTH 782 0
DWIDTH 6 0
BBX 6 7 0 -1
BITMAP
0150
AAD0
D980
1A80
0980
0BD0
1500
ENDCHAR
STARTCHAR periodcentered
ENCODING 183
SWIDTH 226 0
DWIDTH 2 0
BBX 2 2 0 2
BITMAP
90
50
ENDCHAR
STARTCHAR cedilla
ENCODING 184
SWIDTH 780 0
DWIDTH 6 0
BBX 2 3 2 -2
BITMAP
50
60
50
ENDCHAR
STARTCHAR onesuperior
ENCODING 185
SWIDTH 390 0
DWIDTH 3 0
BBX 3 5 0 2
BITMAP
64
24
24
24
14
ENDCHAR
STARTCHAR ordmasculine
ENCODING 186
SWIDTH 449 0
DWIDTH 4 0
BBX 4 3 0 3
BITMAP
A9
C6
64
ENDCHAR
STARTCHAR guillemotright
ENCODING 187
SWIDTH 415 0
DWIDTH 3 0
BBX 3 4 0 0
BITMAP
94
9C
6C
94
ENDCHAR
STARTCHAR onequarter
ENCODING 188
SWIDTH 918 0
DWIDTH 7 0
BBX 7 8 0 -1
BITMAP
6424
2430
2490
2584
1764
06B8
0D68
2464
ENDCHAR
STARTCHAR onehalf
ENCODING 189
SWIDTH 1007 0
DWIDTH 8 0
BBX 8 8 0 -1
BITMAP
6424
2430
2490
2580
176A
0617
0C2A
247A
ENDCHAR
STARTCHAR threequarters
ENCODING 190
SWIDTH 936 0
DWIDTH 8 0
BBX 8 8 0 -1
BITMAP
6818
4934
1DA0
ADC4
1268
06B9
0D68
1468
ENDCHAR
STARTCHAR questiondown
ENCODING 191
SWIDTH 568 0
DWIDTH 5 0
BBX 5 7 0 -2
BITMAP
0200
0240
0600
6E00
D000
D040
6A40
ENDCHAR
STARTCHAR Agrave
ENCODING 192
SWIDTH 788 0
DWIDTH 6 0
BBX 9 10 -1 -2
BITMAP
010000
024000
054000
02C000
02D000
05B000
0AB400
282C00
581E40
001400
ENDCHAR
STARTCHAR Aacute
ENCODING 193
SWIDTH 788 0
DWIDTH 6 0
BBX 9 10 -1 -2
BITMAP
008000
018000
050000
02C000
02D000
05B000
0AB400
282C00
581E40
001400
ENDCHAR
STARTCHAR Acircumflex
ENCODING 194
SWIDTH 788 0
DWIDTH 6 0
BBX 9 10 -1 -2
BITMAP
004000
02C000
065000
02C000
02D000
05B000
0AB400
282C00
581E40
001400
ENDCHAR
STARTCHAR Atilde
ENCODING 195
SWIDTH 788 0
DWIDTH 6 0
BBX 9 9 -1 -2
BITMAP
039000
054000
02C000
02D000
05B000
0AB400
282C00
581E40
001400
ENDCHAR
STARTCHAR Adieresis
ENCODING 196
SWIDTH 788 0
DWIDTH 6 0
BBX 9 9 -1 -2
BITMAP
014000
064000
02C000
02D000
05B000
0AB400
282C00
581E40
001400
ENDCHAR
STARTCHAR Aring
ENCODING 197
SWIDTH 788 0
DWIDTH 6 0
BBX 9 9 -1 -2
BITMAP
018000
068000
02C000
02D000
05B000
0AB400
282C00
581E40
001400
ENDCHAR
STARTCHAR AE
ENCODING 198
SWIDTH 1019 0
DWIDTH 8 0
BBX 10 7 -2 -1
BITMAP
01AAA0
00F820
01A950
022F40
06B950
186EA0
555400
ENDCHAR
STARTCHAR Ccedilla
ENCODING 199
SWIDTH 766 0
DWIDTH 6 0
BBX 6 9 0 -3
BITMAP
0550
39A0
B010
A000
B010
39A0
0A40
0600
0600
ENDCHAR
STARTCHAR Egrave
ENCODING 200
SWIDTH 781 0
DWIDTH 6 0
BBX 6 10 0 -1
BITMAP
0500
0600
0000
5AA0
3820
2950
2F00
2910
6AA0
5400
ENDCHAR
STARTCHAR Eacute
ENCODING 201
SWIDTH 781 0
DWIDTH 6 0
BBX 6 9 0 -1
BITMAP
0200
0200
5AA0
3820
2950
2F00
2910
6AA0
5400
ENDCHAR
STARTCHAR Ecircumflex
ENCODING 202
SWIDTH 781 0
DWIDTH 6 0
BBX 6 9 0 -1
BITMAP
0A00
0500
5AA0
3820
2950
2F00
2910
6AA0
5400
ENDCHAR
STARTCHAR Edieresis
ENCODING 203
SWIDTH 781 0
DWIDTH 6 0
BBX 6 9 0 -1
BITMAP
0500
0500
5AA0
3820
2950
2F00
2910
6AA0
5400
ENDCHAR
STARTCHAR Igrave
ENCODING 204
SWIDTH 445 0
DWIDTH 4 0
BBX 4 10 0 -1
BITMAP
10
24
00
55
38
28
28
28
24
69
ENDCHAR
STARTCHAR Iacute
ENCODING 205
SWIDTH 445 0
DWIDTH 4 0
BBX 4 9 0 -1
BITMAP
08
18
59
38
28
28
28
24
69
ENDCHAR
STARTCHAR Icircumflex
ENCODING 206
SWIDTH 445 0
DWIDTH 4 0
BBX 4 9 0 -1
BITMAP
28
44
55
38
28
28
28
24
69
ENDCHAR
STARTCHAR Idieresis
ENCODING 207
SWIDTH 445 0
DWIDTH 4 0
BBX 4 9 0 -1
BITMAP
14
14
55
38
28
28
28
24
69
ENDCHAR
STARTCHAR Eth
ENCODING 208
SWIDTH 1000 0
DWIDTH 8 0
BBX 8 7 0 -1
BITMAP
5550
1F68
0A0E
7F8A
0A0D
0BA8
1400
ENDCHAR
STARTCHAR Ntilde
ENCODING 209
SWIDTH 840 0
DWIDTH 7 0
BBX 7 8 0 0
BITMAP
0A80
0000
A9A8
2D20
2B60
22E0
20A0
B960
ENDCHAR
STARTCHAR Ograve
ENCODING 210
SWIDTH 808 0
DWIDTH 6 0
BBX 7 8 0 0
BITMAP
0100
0300
0100
2A90
B0B0
A074
B070
2E90
ENDCHAR
STARTCHAR Oacute
ENCODING 211
SWIDTH 808 0
DWIDTH 6 0
BBX 7 8 0 0
BITMAP
0200
0300
0000
2A90
B0B0
A074
B070
2E90
ENDCHAR
STARTCHAR Ocircumflex
ENCODING 212
SWIDTH 808 0
DWIDTH 6 0
BBX 7 8 0 0
BITMAP
0100
0B00
0440
2A90
B0B0
A074
B070
2E90
ENDCHAR
STARTCHAR Otilde
ENCODING 213
SWIDTH 808 0
DWIDTH 6 0
BBX 7 7 0 0
BITMAP
0A80
0000
2A90
B0B0
A074
B070
2E90
ENDCHAR
STARTCHAR Odieresis
ENCODING 214
SWIDTH 808 0
DWIDTH 6 0
BBX 7 7 0 0
BITMAP
0540
0400
2A90
B0B0
A074
B070
2E90
ENDCHAR
STARTCHAR multiply
ENCODING 215
SWIDTH 556 0
DWIDTH 4 0
BBX 4 4 0 1
BITMAP
52
7F
3D
A7
ENDCHAR
STARTCHAR Oslash
ENCODING 216
SWIDTH 808 0
DWIDTH 6 0
BBX 7 7 0 -1
BITMAP
0050
2BD0
B2F0
A774
B970
2E90
2000
ENDCHAR
STARTCHAR Ugrave
ENCODING 217
SWIDTH 725 0
DWIDTH 6 0
BBX 6 8 0 0
BITMAP
0500
0A00
0150
B4A0
7050
7050
7490
2E80
ENDCHAR
STARTCHAR Uacute
ENCODING 218
SWIDTH 725 0
DWIDTH 6 0
BBX 6 8 0 0
BITMAP
0100
0500
0050
B4A0
7050
7050
7490
2E80
ENDCHAR
STARTCHAR Ucircumflex
ENCODING 219
SWIDTH 725 0
DWIDTH 6 0
BBX 6 7 0 0
BITMAP
0A00
0550
B4A0
7050
7050
7490
2E80
ENDCHAR
STARTCHAR Udieresis
ENCODING 220
SWIDTH 725 0
DWIDTH 6 0
BBX 6 7 0 0
BITMAP
0500
0550
B4A0
7050
7050
7490
2E80
ENDCHAR
STARTCHAR Yacute
ENCODING 221
SWIDTH 848 0
DWIDTH 7 0
BBX 8 9 -1 -1
BITMAP
0050
0050
0100
6E19
0754
01D0
00C0
00D0
01A4
ENDCHAR
STARTCHAR Thorn
ENCODING 222
SWIDTH 745 0
DWIDTH 6 0
BBX 6 6 0 -1
BITMAP
7900
3A90
3470
2E80
7900
5500
ENDCHAR
STARTCHAR germandbls
ENCODING 223
SWIDTH 986 0
DWIDTH 8 0
BBX 9 11 -1 -3
BITMAP
014000
066400
091800
091800
2D3400
0A7000
063D00
071780
073A80
670500
290000
ENDCHAR
STARTCHAR agrave
ENCODING 224
SWIDTH 572 0
DWIDTH 5 0
BBX 5 7 0 0
BITMAP
0500
0A00
1500
6700
6740
A700
6B40
ENDCHAR
STARTCHAR aacute
ENCODING 225
SWIDTH 572 0
DWIDTH 5 0
BBX 5 7 0 0
BITMAP
0500
0900
1400
6700
6740
A700
6B40
ENDCHAR
STARTCHAR acircumflex
ENCODING 226
SWIDTH 572 0
DWIDTH 5 0
BBX 5 8 0 0
BITMAP
0400
1D00
1100
1400
6700
6740
A700
6B40
ENDCHAR
STARTCHAR atilde
ENCODING 227
SWIDTH 572 0
DWIDTH 5 0
BBX 5 6 0 0
BITMAP
1E00
1500
6700
6740
A700
6B40
ENDCHAR
STARTCHAR adieresis
ENCODING 228
SWIDTH 572 0
DWIDTH 5 0
BBX 5 6 0 0
BITMAP
1500
2900
6700
6740
A700
6B40
ENDCHAR
STARTCHAR aring
ENCODING 229
SWIDTH 572 0
DWIDTH 5 0
BBX 5 6 0 0
BITMAP
0900
1D00
6700
6740
A700
6B40
ENDCHAR
STARTCHAR ae
ENCODING 230
SWIDTH 1022 0
DWIDTH 8 0
BBX 8 5 0 0
BITMAP
1400
A7A9
67EB
D7D5
6B68
ENDCHAR
STARTCHAR ccedilla
ENCODING 231
SWIDTH 589 0
DWIDTH 5 0
BBX 5 7 0 -3
BITMAP
2A00
A240
A000
7640
1900
0900
1800
ENDCHAR
STARTCHAR egrave
ENCODING 232
SWIDTH 593 0
DWIDTH 5 0
BBX 5 8 0 -1
BITMAP
0400
0900
0000
1900
6240
BA80
7500
1500
ENDCHAR
STARTCHAR eacute
ENCODING 233
SWIDTH 593 0
DWIDTH 5 0
BBX 5 7 0 -1
BITMAP
0500
0900
1900
6240
BA80
7500
1500
ENDCHAR
STARTCHAR ecircumflex
ENCODING 234
SWIDTH 593 0
DWIDTH 5 0
BBX 5 8 0 -1
BITMAP
0400
1D00
1100
1900
6240
BA80
7500
1500
ENDCHAR
STARTCHAR edieresis
ENCODING 235
SWIDTH 593 0
DWIDTH 5 0
BBX 5 7 0 -1
BITMAP
1500
0100
1900
6240
BA80
7500
1500
ENDCHAR
STARTCHAR igrave
ENCODING 236
SWIDTH 393 0
DWIDTH 3 0
BBX 3 7 0 0
BITMAP
10
24
10
78
24
24
78
ENDCHAR
STARTCHAR iacute
ENCODING 237
SWIDTH 393 0
DWIDTH 3 0
BBX 3 7 0 0
BITMAP
14
14
00
78
24
24
78
ENDCHAR
STARTCHAR icircumflex
ENCODING 238
SWIDTH 393 0
DWIDTH 3 0
BBX 3 7 0 0
BITMAP
38
44
00
78
24
24
78
ENDCHAR
STARTCHAR idieresis
ENCODING 239
SWIDTH 393 0
DWIDTH 3 0
BBX 3 6 0 0
BITMAP
14
54
78
24
24
78
ENDCHAR
STARTCHAR eth
ENCODING 240
SWIDTH 672 0
DWIDTH 5 0
BBX 6 8 0 -1
BITMAP
1000
0A80
1F40
05C0
7AD0
D0D0
D0C0
2A40
ENDCHAR
STARTCHAR ntilde
ENCODING 241
SWIDTH 643 0
DWIDTH 5 0
BBX 5 6 0 0
BITMAP
1E00
1500
BA80
31C0
7480
0140
ENDCHAR
STARTCHAR ograve
ENCODING 242
SWIDTH 705 0
DWIDTH 6 0
BBX 6 7 0 0
BITMAP
0500
0600
0000
2A40
A0D0
9090
6A80
ENDCHAR
STARTCHAR oacute
ENCODING 243
SWIDTH 705 0
DWIDTH 6 0
BBX 6 6 0 0
BITMAP
0500
0900
2A40
A0D0
9090
6A80
ENDCHAR
STARTCHAR ocircumflex
ENCODING 244
SWIDTH 705 0
DWIDTH 6 0
BBX 6 6 0 0
BITMAP
0A00
1500
2A40
A0D0
9090
6A80
ENDCHAR
STARTCHAR otilde
ENCODING 245
SWIDTH 705 0
DWIDTH 6 0
BBX 6 6 0 0
BITMAP
1E40
0100
2A40
A0D0
9090
6A80
ENDCHAR
STARTCHAR odieresis
ENCODING 246
SWIDTH 705 0
DWIDTH 6 0
BBX 6 6 0 0
BITMAP
0500
0500
2A40
A0D0
9090
6A80
ENDCHAR
STARTCHAR divide
ENCODING 247
SWIDTH 504 0
DWIDTH 4 0
BBX 4 5 0 0
BITMAP
14
18
AA
55
28
ENDCHAR
STARTCHAR oslash
ENCODING 248
SWIDTH 705 0
DWIDTH 6 0
BBX 6 6 0 -1
BITMAP
0180
2B80
A7D0
ED90
7E80
2000
ENDCHAR
STARTCHAR ugrave
ENCODING 249
SWIDTH 614 0
DWIDTH 5 0
BBX 5 8 0 -1
BITMAP
0400
0C00
0400
A680
6180
6240
3B80
0140
ENDCHAR
STARTCHAR uacute
ENCODING 250
SWIDTH 614 0
DWIDTH 5 0
BBX 5 8 0 -1
BITMAP
0500
0800
0000
A680
6180
6240
3B80
0140
ENDCHAR
STARTCHAR ucircumflex
ENCODING 251
SWIDTH 614 0
DWIDTH 5 0
BBX 5 8 0 -1
BITMAP
0400
1D00
1100
A680
6180
6240
3B80
0140
ENDCHAR
STARTCHAR udieresis
ENCODING 252
SWIDTH 614 0
DWIDTH 5 0
BBX 5 7 0 -1
BITMAP
1500
1100
A680
6180
6240
3B80
0140
ENDCHAR
STARTCHAR yacute
ENCODING 253
SWIDTH 655 0
DWIDTH 5 0
BBX 5 11 0 -4
BITMAP
0500
0800
0000
A680
B1C0
A1C0
6AC0
0180
5280
A740
1900
ENDCHAR
STARTCHAR thorn
ENCODING 254
SWIDTH 734 0
DWIDTH 6 0
BBX 6 10 0 -4
BITMAP
6400
3400
3400
2A40
28A0
2470
2ED0
2400
2800
5400
ENDCHAR
STARTCHAR ydieresis
ENCODING 255
SWIDTH 655 0
DWIDTH 5 0
BBX 5 10 0 -4
BITMAP
1500
1100
A680
B1C0
A1C0
6AC0
0180
5280
A740
1900
ENDCHAR
STARTCHAR dotlessi
ENCODING 305
SWIDTH 393 0
DWIDTH 3 0
BBX 3 4 0 0
BITMAP
78
24
24
78
ENDCHAR
STARTCHAR Lslash
ENCODING 321
SWIDTH 713 0
DWIDTH 6 0
BBX 6 7 0 0
BITMAP
5500
7C00
2900
7E00
B810
2860
6A90
ENDCHAR
STARTCHAR lslash
ENCODING 322
SWIDTH 365 0
DWIDTH 3 0
BBX 4 8 -1 -1
BITMAP
6D
0D
0E
2E
2C
0C
0C
19
ENDCHAR
STARTCHAR OE
ENCODING 338
SWIDTH 1195 0
DWIDTH 10 0
BBX 10 7 0 -1
BITMAP
016A90
157490
A6F500
D0FE00
A1F540
1ABA80
005000
ENDCHAR
STARTCHAR oe
ENCODING 339
SWIDTH 1087 0
DWIDTH 9 0
BBX 9 5 0 -1
BITMAP
1A1500
A1E740
D1EA80
6AA500
001500
ENDCHAR
STARTCHAR Scaron
ENCODING 352
SWIDTH 661 0
DWIDTH 5 0
BBX 5 9 0 -1
BITMAP
1100
1E00
0400
A6C0
E440
6F80
42C0
6680
4400
ENDCHAR
STARTCHAR scaron
ENCODING 353
SWIDTH 533 0
DWIDTH 4 0
BBX 5 8 0 0
BITMAP
1100
2D00
0400
2900
9200
7900
5740
AA00
ENDCHAR
STARTCHAR Ydieresis
ENCODING 376
SWIDTH 848 0
DWIDTH 7 0
BBX 8 8 -1 -1
BITMAP
0150
0110
6E19
0754
01D0
00C0
00D0
01A4
ENDCHAR
STARTCHAR Zcaron
ENCODING 381
SWIDTH 685 0
DWIDTH 5 0
BBX 6 7 0 0
BITMAP
0A00
0400
AAD0
8380
0E00
2C50
7A90
ENDCHAR
STARTCHAR zcaron
ENCODING 382
SWIDTH 549 0
DWIDTH 4 0
BBX 5 7 0 0
BITMAP
1100
2D00
0400
AB40
4D00
2940
BA40
ENDCHAR
STARTCHAR circumflex
ENCODING 710
SWIDTH 714 0
DWIDTH 6 0
BBX 3 3 2 5
BITMAP
10
B0
44
ENDCHAR
STARTCHAR caron
ENCODING 711
SWIDTH 714 0
DWIDTH 6 0
BBX 3 3 2 5
BITMAP
44
B0
10
ENDCHAR
STARTCHAR breve
ENCODING 728
SWIDTH 715 0
DWIDTH 6 0
BBX 3 2 2 6
BITMAP
44
B0
ENDCHAR
STARTCHAR dotaccent
ENCODING 729
SWIDTH 708 0
DWIDTH 6 0
BBX 1 2 2 6
BITMAP
40
40
ENDCHAR
STARTCHAR ring
ENCODING 730
SWIDTH 704 0
DWIDTH 6 0
BBX 2 2 2 6
BITMAP
10
A0
ENDCHAR
STARTCHAR ogonek
ENCODING 731
SWIDTH 988 0
DWIDTH 8 0
BBX 3 2 2 -1
BITMAP
50
78
ENDCHAR
STARTCHAR tilde
ENCODING 732
SWIDTH 707 0
DWIDTH 6 0
BBX 3 2 2 5
BITMAP
E4
10
ENDCHAR
STARTCHAR hungarumlaut
ENCODING 733
SWIDTH 671 0
DWIDTH 5 0
BBX 3 2 1 6
BITMAP
28
6C
ENDCHAR
STARTCHAR endash
ENCODING 8211
SWIDTH 576 0
DWIDTH 5 0
BBX 4 2 0 2
BITMAP
6A
6A
ENDCHAR
STARTCHAR emdash
ENCODING 8212
SWIDTH 993 0
DWIDTH 8 0
BBX 8 2 0 2
BITMAP
5559
6AA9
ENDCHAR
STARTCHAR quoteleft
ENCODING 8216
SWIDTH 261 0
DWIDTH 2 0
BBX 2 3 0 3
BITMAP
20
A0
50
ENDCHAR
STARTCHAR quoteright
ENCODING 8217
SWIDTH 301 0
DWIDTH 2 0
BBX 2 3 0 3
BITMAP
20
A0
50
ENDCHAR
STARTCHAR quotesinglbase
ENCODING 8218
SWIDTH 332 0
DWIDTH 3 0
BBX 2 3 0 -1
BITMAP
20
A0
50
ENDCHAR
STARTCHAR quotedblleft
ENCODING 8220
SWIDTH 477 0
DWIDTH 4 0
BBX 4 3 0 3
BITMAP
25
AD
54
ENDCHAR
STARTCHAR quotedblright
ENCODING 8221
SWIDTH 477 0
DWIDTH 4 0
BBX 4 3 0 3
BITMAP
55
AD
44
ENDCHAR
STARTCHAR quotedblbase
ENCODING 8222
SWIDTH 477 0
DWIDTH 4 0
BBX 4 3 0 -1
BITMAP
55
AD
44
ENDCHAR
STARTCHAR dagger
ENCODING 8224
SWIDTH 487 0
DWIDTH 4 0
BBX 4 10 0 -3
BITMAP
14
28
BD
69
28
28
28
18
18
04
ENDCHAR
STARTCHAR daggerdbl
ENCODING 8225
SWIDTH 497 0
DWIDTH 4 0
BBX 4 10 0 -3
BITMAP
14
28
BD
69
BE
69
28
18
18
04
ENDCHAR
STARTCHAR bullet
ENCODING 8226
SWIDTH 275 0
DWIDTH 2 0
BBX 2 2 0 2
BITMAP
F0
B0
ENDCHAR
STARTCHAR ellipsis
ENCODING 8230
SWIDTH 787 0
DWIDTH 6 0
BBX 6 2 0 -1
BITMAP
5660
9660
ENDCHAR
STARTCHAR perthousand
ENCODING 8240
SWIDTH 888 0
DWIDTH 7 0
BBX 8 7 0 -1
BITMAP
A240
AB00
1900
0C00
1AA9
26A9
1000
ENDCHAR
STARTCHAR guilsinglleft
ENCODING 8249
SWIDTH 234 0
DWIDTH 2 0
BBX 2 4 0 0
BITMAP
10
90
90
20
ENDCHAR
STARTCHAR guilsinglright
ENCODING 8250
SWIDTH 223 0
DWIDTH 2 0
BBX 2 4 0 0
BITMAP
80
90
60
80
ENDCHAR
STARTCHAR fraction
ENCODING 8260
SWIDTH 600 0
DWIDTH 5 0
BBX 5 8 0 -1
BITMAP
0140
0280
0740
0E00
2C00
7400
A000
8000
ENDCHAR
STARTCHAR Euro
ENCODING 8364
SWIDTH 590 0
DWIDTH 5 0
BBX 5 6 0 0
BITMAP
0400
2A40
B540
B900
7940
1900
ENDCHAR
STARTCHAR trademark
ENCODING 8482
SWIDTH 624 0
DWIDTH 5 0
BBX 5 4 0 2
BITMAP
4000
9540
8A40
5540
ENDCHAR
STARTCHAR minus
ENCODING 8722
SWIDTH 549 0
DWIDTH 4 0
BBX 5 2 0 2
BITMAP
5500
BE40
ENDCHAR
STARTCHAR fi
ENCODING 64257
SWIDTH 757 0
DWIDTH 6 0
BBX 7 11 -1 -3
BITMAP
0190
0A34
0934
0D00
2FB4
0A24
0A24
0778
0700
6700
2900
ENDCHAR
STARTCHAR fl
ENCODING 64258
SWIDTH 776 0
DWIDTH 6 0
BBX 7 11 -1 -3
BITMAP
0190
0A34
0928
0D28
2FA8
0A28
0A24
0724
0768
6700
2900
ENDCHAR
STARTCHAR .notdef
ENCODING -1
SWIDTH 320 0
DWIDTH 3 0
BBX 1 1 0 0
BITMAP
00
ENDCHAR
ENDFONT
